<?xml version="1.0" encoding="UTF-8"?>
<svg id="Capa_1" xmlns="http://www.w3.org/2000/svg" viewBox="0 0 711.99 264.5">
  <defs>
    <style>
      .cls-1 {
        fill: #211d42;
      }
    </style>
  </defs>
  <g>
    <path class="cls-1" d="M78.33,42.07S206.14,1.23,259.7,123.74c0,0-18.03-184.55-181.37-81.67Z"/>
    <path class="cls-1" d="M0,142.81s18.03,184.55,181.37,81.67c0,0-127.81,40.84-181.37-81.67"/>
    <path class="cls-1" d="M141.18,264.5s184.72-16.26,83.41-180.58c0,0,39.61,128.2-83.41,180.58"/>
    <path class="cls-1" d="M120.56,0S-64.15,16.26,37.15,180.58c0,0-39.61-128.2,83.41-180.58"/>
    <ellipse class="cls-1" cx="129.9" cy="130.85" rx="79.75" ry="78" transform="translate(-54.48 130.18) rotate(-45)"/>
  </g>
  <g>
    <path class="cls-1" d="M351.69,142.71h-38.66l-8.33,18.54h-7.63l31.72-69.38h7.24l31.72,69.38h-7.73l-8.33-18.54ZM349.01,136.76l-16.65-37.27-16.65,37.27h33.3Z"/>
    <path class="cls-1" d="M430.59,135.18c0,15.76-11.1,26.56-25.97,26.56-8.62,0-15.86-3.77-20.12-10.8v10.31h-6.74v-73.55h7.04v31.32c4.36-6.74,11.5-10.31,19.82-10.31,14.87,0,25.97,10.71,25.97,26.47ZM423.55,135.18c0-12.19-8.42-20.32-19.43-20.32s-19.43,8.13-19.43,20.32,8.33,20.32,19.43,20.32,19.43-8.13,19.43-20.32Z"/>
    <path class="cls-1" d="M487.29,109.11l-26.07,58.38c-4.36,10.21-9.91,13.48-17.35,13.48-4.86,0-9.52-1.59-12.69-4.76l3.27-5.25c2.58,2.58,5.75,3.96,9.52,3.96,4.66,0,7.83-2.18,10.8-8.72l2.28-5.06-23.29-52.04h7.33l19.63,44.31,19.62-44.31h6.94Z"/>
    <path class="cls-1" d="M489.37,155.3l3.17-5.55c4.16,3.27,11.2,5.85,18.54,5.85,9.91,0,13.98-3.37,13.98-8.52,0-13.58-33.8-2.88-33.8-23.49,0-8.52,7.34-14.87,20.62-14.87,6.74,0,14.08,1.88,18.44,4.86l-3.07,5.65c-4.56-3.17-10.01-4.46-15.36-4.46-9.42,0-13.58,3.67-13.58,8.62,0,14.08,33.8,3.47,33.8,23.49,0,9.02-7.93,14.87-21.51,14.87-8.62,0-16.95-2.78-21.21-6.44Z"/>
    <path class="cls-1" d="M537.84,155.3l3.17-5.55c4.16,3.27,11.2,5.85,18.54,5.85,9.91,0,13.98-3.37,13.98-8.52,0-13.58-33.8-2.88-33.8-23.49,0-8.52,7.33-14.87,20.62-14.87,6.74,0,14.07,1.88,18.44,4.86l-3.07,5.65c-4.56-3.17-10.01-4.46-15.36-4.46-9.42,0-13.58,3.67-13.58,8.62,0,14.08,33.8,3.47,33.8,23.49,0,9.02-7.93,14.87-21.51,14.87-8.62,0-16.95-2.78-21.21-6.44Z"/>
    <path class="cls-1" d="M607.12,102.76h-23v-10.9h58.88v10.9h-23v58.48h-12.89v-58.48Z"/>
    <path class="cls-1" d="M698.11,161.24l-14.17-20.32c-.89.1-1.79.1-2.68.1h-15.66v20.22h-12.89v-69.38h28.55c18.24,0,29.54,9.32,29.54,24.68,0,10.51-5.35,18.24-14.77,21.91l15.96,22.8h-13.88ZM680.67,102.76h-15.07v27.66h15.07c11.3,0,17.15-5.15,17.15-13.88s-5.85-13.78-17.15-13.78Z"/>
  </g>
</svg>